<?xml version="1.0" standalone="no"?>
<!DOCTYPE svg PUBLIC "-//W3C//DTD SVG 20010904//EN"
 "http://www.w3.org/TR/2001/REC-SVG-20010904/DTD/svg10.dtd">
<svg version="1.0" xmlns="http://www.w3.org/2000/svg"
 width="462.000000pt" height="462.000000pt" viewBox="0 0 462.000000 462.000000"
 preserveAspectRatio="xMidYMid meet">
<metadata>
Created by potrace 1.11, written by Peter Selinger 2001-2013
</metadata>
<g transform="translate(0.000000,462.000000) scale(0.100000,-0.100000)"
fill="#000000" stroke="none">
<path d="M1420 4604 c0 -8 -4 -13 -9 -10 -10 7 -24 -20 -24 -49 -1 -11 -10
-25 -21 -32 -12 -7 -18 -12 -14 -13 4 0 -6 -24 -21 -53 -15 -29 -27 -60 -25
-69 1 -9 -4 -19 -12 -22 -7 -3 -11 -14 -9 -26 2 -11 0 -20 -4 -20 -11 0 -21
-49 -25 -112 -2 -26 -7 -53 -13 -60 -12 -17 -11 -197 2 -206 6 -4 11 -25 12
-47 3 -68 29 -155 45 -155 5 0 7 -3 7 -7 -3 -17 14 -73 22 -73 5 0 14 -11 19
-25 5 -14 17 -28 25 -31 8 -4 15 -16 15 -29 0 -25 34 -60 49 -50 9 5 15 -5 13
-26 0 -3 21 -20 49 -37 27 -18 49 -37 49 -42 0 -6 8 -10 19 -10 10 0 24 -7 31
-15 7 -8 19 -15 27 -15 8 0 27 -9 41 -19 15 -10 30 -19 35 -20 17 -2 63 -14
71 -19 5 -3 27 -7 48 -8 40 -3 38 -5 43 58 0 9 3 20 7 23 3 4 2 21 -2 38 -5
18 -8 49 -7 69 1 21 -2 40 -8 42 -5 3 -5 5 2 5 7 1 10 8 7 16 -4 8 -9 13 -13
10 -4 -2 -7 18 -6 46 1 27 -2 52 -7 55 -4 3 -8 16 -8 29 0 13 -4 27 -10 30 -5
3 -10 17 -10 31 0 13 -4 24 -9 24 -5 0 -8 11 -5 25 2 14 0 25 -6 25 -5 0 -10
7 -10 15 0 8 -5 15 -12 15 -6 0 -8 3 -5 7 4 3 -1 15 -10 26 -17 18 -17 19 1
16 10 -2 24 -13 30 -23 6 -11 25 -32 42 -48 17 -15 37 -41 44 -58 7 -16 17
-30 22 -30 5 0 8 -8 6 -17 -2 -10 4 -27 14 -37 10 -11 18 -34 18 -52 0 -18 5
-36 11 -39 6 -4 8 -13 5 -20 -2 -7 1 -18 7 -24 6 -6 11 -53 12 -114 0 -56 4
-108 9 -115 10 -16 73 18 101 54 11 14 34 41 51 59 18 17 35 41 38 52 4 14 13
19 25 16 15 -4 17 1 15 31 -2 20 1 36 5 36 9 0 23 34 24 60 1 8 5 18 10 21 12
8 10 168 -2 183 -6 7 -8 16 -4 19 3 4 1 7 -5 7 -7 0 -12 9 -12 20 0 11 -5 20
-11 20 -5 0 -7 5 -4 10 3 6 1 10 -5 10 -7 0 -8 6 0 19 7 13 7 22 0 26 -7 4 -7
12 0 24 7 14 6 18 -8 18 -35 0 -42 3 -42 18 0 17 -79 122 -131 174 -19 20 -38
44 -42 53 -4 11 -13 15 -26 11 -17 -4 -21 -1 -21 21 0 15 -6 26 -13 26 -8 0
-33 18 -56 40 -23 22 -46 40 -51 40 -6 0 -29 18 -51 40 -23 22 -52 43 -66 46
-13 4 -28 15 -34 26 -6 11 -13 17 -16 14 -5 -5 -25 9 -81 55 -7 6 -16 9 -18 6
-3 -3 -14 3 -25 14 -24 24 -99 27 -99 3z"/>
<path d="M3213 4180 c-18 -4 -42 -7 -55 -6 -13 1 -26 -3 -30 -9 -5 -6 -8 -5
-8 3 0 9 -5 10 -19 3 -10 -6 -38 -9 -62 -7 -24 2 -47 -1 -50 -6 -3 -5 -27 -10
-53 -10 -25 0 -46 -4 -46 -9 0 -5 -13 -8 -29 -7 -15 1 -40 -6 -55 -15 -15 -10
-31 -15 -35 -12 -5 3 -17 -3 -27 -12 -10 -10 -19 -17 -21 -15 -9 6 -24 -1 -64
-30 -24 -18 -47 -33 -50 -33 -16 0 -138 -175 -122 -175 4 0 2 -5 -5 -12 -7 -7
-12 -22 -12 -35 0 -13 -4 -23 -10 -23 -5 0 -10 -15 -10 -34 0 -19 -4 -37 -9
-40 -5 -3 -8 -24 -6 -46 2 -22 -1 -42 -6 -46 -5 -3 -9 -12 -9 -20 0 -24 32
-15 65 19 93 94 238 209 220 175 -4 -7 0 -5 8 5 8 9 21 17 30 17 8 0 17 7 21
15 6 17 36 21 36 5 0 -5 -4 -10 -9 -10 -11 0 -124 -116 -130 -133 -2 -7 -11
-19 -20 -27 -15 -14 -24 -29 -55 -85 -6 -11 -16 -27 -23 -35 -11 -15 -16 -41
-14 -69 2 -21 315 -5 331 17 3 4 12 7 20 7 8 -1 21 3 28 8 6 5 12 6 12 2 0 -5
8 -1 18 8 9 8 19 16 22 17 32 6 50 14 50 22 0 5 5 8 12 6 7 -3 22 6 34 19 12
13 26 23 32 23 6 0 31 26 57 58 25 31 50 62 55 69 6 7 10 17 10 23 0 5 5 10
12 10 6 0 8 3 5 6 -3 4 0 16 8 26 7 11 11 27 8 34 -3 8 0 14 6 14 6 0 11 7 11
15 0 8 5 15 10 15 6 0 10 6 8 13 -1 6 1 21 5 32 3 11 8 31 11 45 2 14 8 36 14
50 5 14 7 30 5 37 -2 6 1 14 6 18 6 3 11 27 11 52 0 56 -22 88 -51 72 -11 -6
-26 -6 -36 -1 -10 5 -32 6 -50 2z"/>
<path d="M530 3986 c-5 -5 -26 -10 -47 -12 -21 -1 -56 -8 -78 -14 -22 -6 -45
-12 -52 -13 -7 -2 -16 -6 -19 -10 -4 -4 -16 -7 -26 -7 -10 0 -18 -4 -18 -10 0
-5 -8 -10 -18 -10 -25 0 -82 -29 -82 -42 0 -5 -7 -8 -15 -4 -8 3 -15 1 -15 -4
0 -6 -9 -10 -20 -10 -11 0 -20 -5 -20 -10 0 -6 -3 -10 -7 -9 -16 2 -53 -14
-53 -23 0 -5 -4 -7 -9 -4 -5 3 -11 -1 -15 -9 -3 -8 -12 -15 -21 -15 -12 0 -15
-17 -15 -100 0 -93 2 -101 25 -124 14 -14 28 -25 30 -23 3 1 17 -10 32 -24 16
-14 55 -40 88 -59 33 -18 63 -38 67 -44 4 -6 8 -7 8 -3 0 5 14 -1 30 -13 17
-12 37 -19 45 -17 7 3 16 -1 19 -9 3 -9 10 -12 16 -9 5 3 10 1 10 -5 0 -6 4
-9 8 -6 5 3 20 -1 33 -8 14 -7 37 -11 52 -9 15 2 27 -1 27 -7 0 -6 24 -10 55
-10 30 0 55 -4 55 -9 0 -11 98 -6 165 8 71 15 74 16 81 24 4 4 18 7 31 7 13 0
23 4 23 9 0 5 12 12 28 16 15 3 35 14 45 22 9 9 17 13 17 10 0 -8 43 29 119
102 38 37 61 66 53 69 -6 2 -12 10 -12 19 0 10 -6 12 -20 8 -11 -4 -20 -2 -20
4 0 6 -9 11 -19 11 -11 0 -23 5 -26 11 -4 5 -17 9 -28 7 -12 -1 -27 1 -33 5
-7 4 -28 9 -48 11 -19 3 -44 10 -54 15 -11 6 -22 8 -25 5 -8 -9 -57 -12 -57
-4 0 7 -6 9 -67 12 -23 2 -45 6 -48 10 -4 4 -15 4 -24 -1 -9 -4 -42 -7 -74 -7
-32 1 -61 -2 -63 -6 -3 -5 -13 -8 -22 -8 -16 0 13 17 63 35 53 20 115 34 136
30 11 -2 19 0 19 4 0 5 36 8 80 8 44 0 80 -3 80 -7 0 -4 23 -7 50 -6 28 1 50
-1 50 -4 0 -7 80 -40 110 -46 8 -2 16 -7 18 -13 2 -5 9 -8 17 -5 13 6 9 44 -6
44 -4 0 -23 25 -41 55 -17 30 -34 52 -36 50 -2 -2 -21 14 -43 36 -21 21 -43
39 -48 39 -5 0 -16 6 -23 13 -24 23 -85 57 -91 50 -4 -3 -7 -2 -7 4 0 9 -44
23 -90 28 -8 1 -22 5 -32 9 -24 11 -188 12 -198 2z"/>
<path d="M3926 3968 c-19 -4 -49 -9 -68 -11 -18 -2 -53 -10 -78 -17 -25 -7
-57 -14 -71 -15 -15 -1 -39 -9 -53 -18 -14 -10 -26 -15 -26 -12 0 2 -21 -7
-47 -22 -44 -24 -93 -66 -93 -80 0 -3 -11 -14 -25 -25 -14 -11 -25 -26 -25
-34 0 -8 -4 -14 -10 -14 -5 0 -10 -9 -10 -20 0 -11 -5 -20 -11 -20 -5 0 -8 -4
-4 -9 3 -5 1 -12 -5 -16 -5 -3 -10 -17 -10 -30 0 -13 -4 -27 -10 -30 -5 -3
-10 -28 -10 -56 0 -32 -4 -49 -12 -49 -10 0 -10 -2 0 -9 8 -4 13 -11 13 -15
-5 -34 -1 -35 42 -14 23 12 48 26 56 32 7 5 20 11 29 13 9 1 21 8 27 15 10 13
91 55 117 60 7 2 15 6 18 9 14 17 90 48 95 39 3 -6 1 -10 -4 -10 -6 0 -19 -7
-28 -15 -10 -8 -22 -16 -28 -17 -9 -2 -51 -37 -91 -75 -7 -7 -17 -13 -22 -13
-6 0 -13 -7 -16 -16 -3 -8 -10 -12 -16 -9 -5 3 -14 -5 -20 -19 -5 -14 -14 -26
-20 -26 -6 0 -8 -4 -5 -10 3 -5 1 -10 -4 -10 -6 0 -11 -7 -11 -15 0 -8 -4 -15
-8 -15 -14 0 -14 -70 0 -72 14 -1 30 -5 38 -8 22 -8 53 -12 98 -13 28 -1 52
-5 52 -9 0 -4 10 -6 22 -4 12 1 37 0 55 -4 20 -5 33 -4 33 2 0 5 4 7 9 3 5 -3
12 -1 15 4 3 4 24 7 47 6 24 -1 42 2 45 9 2 6 17 11 32 10 15 0 41 7 57 16 17
9 36 15 44 12 7 -2 16 0 20 5 3 5 26 21 51 35 49 29 185 152 185 167 0 5 10
18 23 29 12 11 25 30 27 43 3 13 11 27 20 31 8 5 15 16 15 23 0 8 5 15 11 15
5 0 8 4 5 8 -3 5 1 20 9 35 7 14 11 28 7 31 -3 3 1 6 8 6 7 0 10 3 7 7 -4 3 0
17 8 30 9 13 13 23 11 23 -3 0 1 11 8 25 7 13 12 38 11 54 -1 19 4 32 13 36
13 5 12 8 -3 25 -10 11 -27 19 -39 19 -11 0 -33 2 -48 4 -17 2 -28 0 -28 -7 0
-7 -3 -7 -8 -1 -4 6 -29 10 -57 10 -27 0 -53 -4 -57 -10 -5 -7 -8 -7 -8 0 0 6
-25 10 -55 10 -30 0 -55 -4 -55 -10 0 -7 -3 -7 -8 0 -8 12 -125 13 -176 3z"/>
<path d="M2141 3261 c-8 -5 -26 -8 -40 -6 -14 2 -32 -2 -40 -8 -7 -6 -26 -10
-42 -9 -16 2 -29 -1 -29 -7 0 -6 -10 -10 -23 -7 -12 2 -31 -2 -41 -9 -10 -8
-24 -11 -32 -8 -8 3 -14 1 -14 -5 0 -5 -13 -9 -30 -8 -16 1 -31 -2 -33 -8 -2
-5 -12 -10 -22 -12 -10 -2 -30 -6 -44 -10 -14 -4 -29 -7 -33 -6 -5 1 -8 -3 -8
-9 0 -6 -6 -9 -14 -6 -8 3 -20 0 -26 -8 -6 -7 -20 -11 -30 -8 -11 3 -20 0 -20
-6 0 -6 -13 -11 -30 -11 -16 0 -30 -4 -30 -8 0 -4 -12 -9 -27 -9 -56 -3 -92
-16 -113 -38 l-21 -23 29 -20 c15 -12 40 -22 55 -24 14 -2 29 -7 33 -11 4 -4
27 -7 51 -7 23 0 43 -4 43 -9 0 -5 16 -9 35 -9 20 0 41 -5 49 -11 7 -6 16 -8
19 -4 4 3 12 1 19 -4 7 -6 26 -10 41 -9 15 1 33 -4 38 -10 6 -7 21 -11 34 -8
13 2 27 0 30 -6 3 -5 17 -10 30 -10 13 0 27 -5 30 -11 4 -6 13 -8 20 -5 8 3
19 -1 25 -9 6 -7 20 -11 30 -8 12 3 20 0 20 -7 0 -6 10 -10 23 -9 12 2 33 -1
47 -6 14 -5 40 -7 58 -6 18 1 32 -3 32 -9 0 -16 226 -6 355 16 28 4 53 7 58 6
4 -1 7 3 7 8 0 6 6 10 13 9 6 -1 24 1 38 5 14 4 32 9 40 10 13 3 23 6 67 23 9
3 24 7 32 8 18 2 48 13 73 26 10 5 22 7 27 4 4 -3 14 1 22 8 7 7 23 12 36 11
12 -1 22 3 22 7 0 5 13 9 29 9 17 0 32 4 35 9 4 5 14 8 24 7 9 -2 19 0 22 5 3
4 21 10 40 12 67 9 71 14 61 79 0 4 -8 5 -16 2 -8 -4 -15 -2 -15 4 0 6 -8 9
-17 8 -10 -2 -21 1 -24 5 -3 5 -24 10 -47 11 -23 1 -42 5 -42 10 0 5 -18 8
-39 6 -22 -1 -46 3 -53 10 -8 6 -24 10 -36 7 -12 -2 -24 0 -27 4 -2 5 -22 12
-42 16 -21 5 -44 10 -50 12 -7 2 -26 6 -43 10 -16 3 -30 10 -30 15 0 6 -6 8
-14 5 -7 -3 -24 0 -38 7 -13 7 -34 11 -46 9 -12 -1 -22 1 -22 6 0 7 -39 15
-117 24 -12 2 -25 6 -29 10 -11 10 -286 8 -303 -2z"/>
<path d="M460 3163 c0 -5 -12 -9 -27 -7 -15 1 -32 0 -38 -4 -5 -3 -17 -7 -25
-9 -8 -1 -16 -7 -18 -13 -2 -5 -7 -8 -12 -5 -17 10 -78 -27 -137 -84 -35 -33
-63 -65 -63 -71 0 -5 -4 -10 -9 -10 -5 0 -14 -13 -21 -30 -7 -16 -16 -30 -21
-30 -5 0 -8 -3 -8 -7 3 -17 -14 -73 -22 -73 -5 0 -9 -13 -9 -29 0 -17 -4 -32
-9 -35 -11 -7 -11 -295 1 -302 4 -3 8 -18 8 -35 0 -16 4 -37 9 -47 10 -17 20
-48 21 -57 0 -3 7 -19 15 -35 8 -16 15 -33 14 -36 0 -4 6 -11 15 -16 9 -5 14
-13 12 -17 -3 -4 3 -17 14 -28 10 -12 16 -24 13 -27 -4 -3 -1 -6 5 -6 7 0 12
-5 12 -11 0 -12 46 -59 57 -59 11 0 32 -35 33 -52 0 -35 80 -92 125 -90 11 1
27 -6 37 -15 10 -9 34 -17 53 -18 32 -1 40 5 36 28 0 4 4 7 9 7 6 0 10 11 10
23 0 13 9 34 20 47 11 12 22 31 26 42 5 18 9 17 36 -16 16 -20 34 -34 39 -31
5 4 9 -1 9 -9 0 -9 4 -16 9 -16 5 0 16 -6 23 -13 55 -52 272 -65 353 -20 11 6
23 11 28 12 17 2 63 30 81 50 11 12 23 21 28 21 11 0 84 78 110 119 10 14 18
34 18 44 0 9 4 17 8 17 5 0 8 42 7 93 0 57 5 105 13 127 8 19 14 35 13 35 0 0
2 10 5 23 4 12 10 22 15 22 5 0 9 7 9 15 0 8 5 15 11 15 5 0 7 5 4 10 -3 6 -1
10 4 10 6 0 11 6 11 14 0 8 7 16 15 20 8 3 15 12 15 21 0 8 6 15 13 15 8 0 12
-13 11 -37 -1 -21 2 -43 7 -48 4 -6 6 -37 3 -70 -3 -33 -7 -127 -9 -208 -4
-116 -2 -149 8 -153 9 -3 12 -16 9 -34 -3 -20 0 -30 8 -30 7 0 10 -8 7 -20 -3
-11 -1 -23 4 -26 5 -3 9 -13 9 -22 0 -9 9 -28 19 -41 10 -14 16 -31 13 -40 -3
-8 -1 -12 5 -8 5 3 16 -9 23 -28 8 -19 17 -35 22 -35 4 0 8 -6 8 -13 0 -7 16
-29 36 -50 20 -20 32 -37 28 -37 -5 0 -4 -4 2 -8 18 -12 95 -132 99 -154 3
-12 10 -25 17 -30 8 -5 9 -8 2 -8 -7 0 -10 -14 -7 -35 2 -19 -1 -35 -6 -35 -6
0 -6 -12 1 -32 5 -18 11 -60 13 -93 3 -77 3 -77 14 -71 16 10 -6 -64 -26 -86
-13 -15 -15 -22 -5 -25 9 -4 7 -12 -7 -31 -10 -15 -16 -32 -14 -39 2 -6 -1
-14 -6 -18 -6 -3 -11 -15 -11 -26 0 -10 -5 -19 -11 -19 -5 0 -8 -4 -4 -9 6
-11 -15 -62 -30 -73 -5 -4 -7 -8 -3 -8 5 0 -8 -21 -27 -46 -19 -25 -33 -50
-29 -55 3 -5 -2 -9 -10 -9 -9 0 -16 -6 -16 -12 0 -15 -158 -168 -173 -168 -5
0 -18 -10 -28 -22 -11 -11 -19 -17 -19 -12 0 5 -4 4 -8 -1 -4 -6 -18 -16 -32
-23 -14 -7 -44 -23 -67 -36 -24 -14 -43 -22 -43 -19 0 3 -7 0 -15 -7 -8 -7
-15 -10 -15 -6 0 4 -21 -5 -47 -18 -25 -14 -50 -23 -55 -20 -4 3 -8 1 -8 -5 0
-5 -9 -8 -20 -6 -11 2 -22 0 -25 -6 -4 -5 -17 -9 -31 -9 -13 0 -24 -5 -24 -11
0 -6 -9 -9 -19 -6 -11 3 -28 -1 -39 -9 -11 -7 -31 -11 -46 -8 -14 2 -26 0 -26
-5 0 -5 -26 -12 -57 -15 -32 -3 -74 -8 -93 -11 -19 -3 -59 -8 -87 -11 -29 -3
-53 -9 -53 -12 0 -4 -15 -8 -34 -8 -19 -1 -43 -5 -53 -9 -24 -10 -174 -22
-300 -24 -23 -1 -31 -5 -27 -15 4 -12 45 -22 119 -29 11 -1 23 -6 26 -10 4 -5
32 -10 63 -10 31 -1 56 -5 56 -9 0 -4 18 -6 40 -4 22 2 40 0 40 -5 0 -5 8 -6
17 -2 12 4 8 -3 -9 -20 -16 -14 -28 -30 -28 -34 0 -8 -27 -41 -80 -100 -11
-12 -20 -27 -20 -32 0 -5 -9 -16 -20 -24 -25 -17 -16 -27 24 -27 25 0 46 13
96 61 36 34 76 67 90 74 14 8 37 25 52 40 16 14 28 22 28 18 1 -4 9 2 20 15
10 13 20 23 22 23 15 -1 48 13 48 20 0 5 3 8 8 7 4 -1 18 4 32 12 14 7 26 11
27 9 1 -2 46 18 100 45 147 73 153 76 169 76 8 0 14 5 14 12 0 6 3 9 6 5 3 -3
21 3 40 14 19 10 43 19 54 19 11 0 20 5 20 12 0 6 3 9 6 6 3 -4 24 2 47 12 23
10 45 16 49 14 4 -3 8 0 8 5 0 6 9 11 19 11 11 0 27 7 35 16 9 8 16 12 16 9 0
-4 11 0 25 9 14 9 29 15 33 12 5 -3 21 4 38 15 16 10 43 19 59 19 17 0 36 5
43 12 7 7 12 9 12 5 0 -4 8 -3 19 2 28 16 34 0 9 -26 -12 -13 -18 -23 -14 -23
4 0 -11 -18 -34 -40 -23 -22 -45 -40 -49 -40 -3 0 -14 -8 -22 -17 -14 -16 -82
-75 -143 -125 -12 -10 -27 -22 -33 -28 -7 -6 -13 -8 -13 -5 0 3 -24 -18 -52
-46 -29 -28 -77 -69 -105 -90 -63 -47 -113 -95 -107 -102 3 -2 -11 -18 -31
-36 -34 -30 -35 -31 -11 -31 21 0 97 58 147 112 9 10 23 18 32 18 9 0 20 6 24
13 9 15 63 40 71 33 8 -8 9 -106 1 -106 -4 0 -5 -9 -2 -20 3 -11 0 -20 -6 -20
-5 0 -8 -7 -5 -15 4 -10 20 -15 51 -15 36 0 46 4 50 20 3 11 10 20 16 20 6 0
7 3 4 6 -4 4 3 20 14 35 11 16 17 29 13 29 -4 0 1 9 11 20 10 11 14 20 9 20
-5 0 -1 7 9 14 10 8 18 17 19 20 0 25 13 45 31 50 12 3 18 8 15 11 -4 4 1 15
10 24 9 10 28 33 42 51 14 18 32 40 41 50 8 9 19 24 22 34 4 10 16 20 26 23
10 2 24 15 31 28 19 35 109 91 145 90 41 0 85 -36 85 -68 0 -14 4 -29 10 -32
19 -12 -41 -95 -69 -95 -5 0 -14 -7 -21 -15 -7 -9 -15 -13 -17 -11 -3 3 -14
-4 -26 -15 -11 -10 -26 -19 -33 -19 -7 0 -21 -11 -31 -23 -19 -25 -63 -53 -63
-40 0 4 -16 -10 -35 -32 -26 -28 -32 -40 -23 -46 8 -5 16 -2 21 7 5 9 16 13
28 9 11 -4 26 -1 34 5 8 7 20 10 27 7 7 -2 26 2 41 10 26 13 28 13 18 -4 -5
-10 -19 -28 -31 -41 -11 -12 -18 -27 -15 -32 3 -6 -1 -10 -9 -10 -8 0 -18 -10
-22 -22 -4 -13 -15 -29 -26 -36 -10 -7 -16 -17 -13 -22 3 -4 -1 -11 -7 -13 -7
-3 -2 -6 12 -6 30 -1 47 10 118 78 30 28 60 51 68 51 9 0 13 -4 9 -9 -3 -5 2
-17 11 -26 9 -9 14 -19 11 -22 -4 -3 0 -15 8 -25 7 -11 11 -27 8 -34 -4 -11 7
-14 46 -14 39 0 51 4 51 15 0 8 -4 15 -9 15 -5 0 -8 17 -6 38 1 20 -3 45 -11
56 -8 12 -10 26 -4 41 5 13 6 26 2 31 -4 4 -2 4 5 1 6 -4 10 -15 9 -24 -2 -9
3 -28 10 -41 7 -14 10 -30 8 -37 -8 -19 29 -29 41 -11 6 8 10 38 10 68 -1 29
3 56 9 60 14 9 17 38 4 38 -6 0 -4 8 5 18 10 10 17 22 17 26 0 11 27 36 38 36
5 0 34 -23 63 -50 101 -95 99 -94 117 -76 13 12 13 18 2 30 -7 9 -9 16 -5 16
4 0 2 7 -5 15 -7 8 -10 21 -7 29 3 8 -1 17 -10 20 -9 4 -13 9 -10 13 4 3 2 12
-4 19 -16 19 -15 107 2 131 12 17 16 18 27 7 7 -8 9 -14 5 -14 -4 0 -3 -4 4
-8 6 -4 12 -14 14 -22 4 -22 -11 -61 -22 -55 -5 4 -9 -1 -9 -10 0 -13 6 -16
23 -11 35 8 50 -26 44 -100 -3 -32 -8 -68 -10 -79 -3 -11 -6 -30 -6 -42 -1
-12 -9 -29 -18 -39 -9 -9 -18 -24 -19 -33 -1 -9 -5 -24 -9 -34 -7 -17 -6 -18
14 -6 11 8 24 28 27 46 3 18 10 33 14 33 8 0 22 34 24 58 1 8 9 18 19 23 9 6
17 17 17 24 0 14 18 17 30 5 3 -3 22 -16 42 -30 20 -13 34 -28 32 -32 -3 -4 0
-8 7 -8 6 0 9 -8 6 -20 -3 -11 -1 -20 4 -20 5 0 3 -13 -6 -30 -9 -16 -12 -30
-9 -30 4 0 0 -8 -9 -18 -10 -10 -14 -22 -10 -25 11 -11 145 -8 138 3 -3 6 -1
10 5 10 6 0 10 10 8 23 -2 18 2 23 26 25 16 2 41 -2 54 -10 20 -10 26 -10 29
-1 6 17 4 28 -4 29 -44 5 -92 50 -88 82 4 32 17 62 27 62 5 0 7 4 4 8 -7 12
22 52 37 52 7 0 21 -14 32 -30 11 -16 25 -30 32 -30 7 0 17 -9 23 -20 6 -11
17 -20 24 -20 8 0 17 -11 20 -25 4 -16 11 -22 21 -19 9 4 15 0 15 -8 0 -22 47
-60 53 -43 3 7 1 17 -3 21 -5 5 -11 20 -13 32 -2 13 -11 32 -20 43 -9 10 -17
23 -17 28 0 5 -9 11 -21 14 -12 3 -18 10 -15 16 4 6 -2 19 -13 30 -16 16 -19
27 -12 60 1 2 7 -1 14 -7 19 -16 95 -13 101 4 4 12 -7 20 -16 12 -2 -1 -20 14
-41 35 -22 20 -43 35 -48 32 -4 -3 -14 3 -21 15 -7 11 -18 20 -25 20 -7 0 -13
5 -13 11 0 5 -4 7 -10 4 -5 -3 -10 -1 -10 4 0 6 -7 11 -16 11 -25 0 -70 30
-86 59 -16 27 -9 59 17 87 16 17 65 14 104 -7 19 -10 39 -15 45 -12 6 3 9 3 6
0 -3 -3 31 -45 77 -93 46 -47 83 -90 83 -95 0 -4 12 -20 27 -34 15 -14 24 -25
20 -25 -5 0 1 -12 12 -26 11 -15 19 -30 16 -34 -3 -4 6 -11 20 -14 14 -4 25
-12 25 -19 0 -7 7 -22 15 -32 57 -75 85 -115 85 -123 0 -6 7 -12 15 -16 8 -3
20 -17 25 -31 5 -14 14 -25 19 -25 5 0 11 -9 14 -20 4 -15 14 -20 36 -20 29 0
30 2 19 20 -7 11 -16 20 -20 20 -5 0 -8 6 -8 13 0 7 -10 27 -23 44 -12 17 -29
41 -37 53 -8 12 -23 31 -32 42 -10 12 -18 25 -18 29 0 4 -6 14 -13 21 -29 29
-63 104 -59 131 2 16 8 25 14 21 6 -4 25 -7 42 -8 33 -2 126 -44 126 -58 0 -4
5 -8 10 -8 6 0 39 -28 74 -63 99 -99 153 -147 162 -147 4 0 21 -12 36 -27 15
-15 28 -21 28 -14 0 7 5 9 13 5 6 -4 -10 15 -38 43 -27 28 -77 78 -109 112
-32 33 -60 61 -62 61 -10 0 -116 112 -110 117 3 4 27 8 53 8 35 1 47 6 49 19
2 12 -5 16 -24 16 -15 0 -48 0 -73 0 -26 0 -51 0 -55 -2 -5 -1 -19 3 -31 10
-13 7 -23 9 -23 5 0 -4 -5 -2 -12 5 -7 7 -19 12 -28 12 -20 0 -53 34 -43 43 3
4 -2 7 -13 7 -24 1 -56 24 -46 34 4 4 2 6 -5 4 -21 -6 -138 96 -128 111 5 9
42 7 51 -2 4 -4 18 -7 31 -7 13 0 22 -4 19 -8 -2 -4 5 -9 17 -9 12 -1 23 -6
25 -11 1 -5 14 -7 27 -4 14 2 25 0 25 -5 0 -6 10 -10 23 -9 12 1 31 -4 43 -11
11 -7 24 -10 27 -6 4 3 7 2 7 -4 0 -6 12 -15 28 -21 15 -6 36 -14 47 -18 11
-4 26 -6 33 -5 6 1 12 -4 12 -10 0 -7 3 -9 6 -6 4 3 18 -3 32 -13 20 -17 28
-18 40 -8 12 10 16 10 19 1 3 -7 18 -13 34 -13 16 0 29 -4 29 -8 0 -4 10 -9
23 -9 12 -1 42 -7 67 -13 25 -6 59 -13 75 -15 17 -1 33 -3 36 -4 3 -1 22 -17
42 -36 20 -19 40 -35 46 -35 12 0 91 -78 91 -90 0 -5 13 -16 30 -25 16 -8 29
-20 27 -26 -1 -6 8 -13 21 -15 12 -2 38 -19 57 -38 18 -19 36 -31 39 -28 3 3
6 0 6 -6 0 -7 6 -12 13 -12 7 0 20 -8 29 -17 9 -10 23 -23 31 -30 8 -7 17 -16
18 -21 2 -5 14 -13 26 -16 19 -6 23 -4 23 13 0 12 -4 21 -10 21 -5 0 -10 7
-10 15 0 8 -6 15 -13 15 -13 0 -40 26 -46 45 -16 48 -23 57 -36 51 -13 -5 -20
5 -16 27 0 4 -4 7 -10 7 -5 0 -7 5 -3 12 4 7 3 8 -4 4 -6 -4 -18 5 -28 19 -9
13 -21 22 -28 18 -6 -3 -8 -2 -3 2 4 5 -3 19 -15 33 -23 23 -23 24 -3 38 11 8
34 14 50 13 17 0 32 0 35 1 3 1 16 3 30 5 14 2 42 6 62 9 21 3 46 9 56 15 11
6 22 8 25 4 3 -3 13 2 22 10 8 9 12 17 8 20 -5 2 -88 3 -185 2 -98 0 -178 3
-178 7 0 4 -9 8 -20 8 -11 0 -20 5 -20 12 0 6 -2 9 -6 6 -3 -3 -25 0 -49 7
-24 8 -46 11 -49 8 -3 -4 -6 -1 -6 6 0 7 -10 10 -24 7 -14 -2 -26 0 -28 6 -2
5 -17 12 -33 14 -17 1 -50 8 -75 15 -44 11 -54 13 -132 25 -21 4 -38 11 -38
16 0 6 -9 8 -19 5 -11 -3 -28 1 -38 8 -10 7 -22 13 -28 14 -31 4 -116 33 -127
44 -19 19 -50 31 -87 35 -8 1 -11 8 -7 18 5 12 2 15 -9 10 -14 -5 -42 14 -96
66 -10 9 -19 15 -21 13 -2 -2 -26 26 -53 62 -28 36 -59 74 -69 84 -11 11 -21
35 -22 55 -1 20 -12 59 -24 88 -13 28 -29 64 -36 81 -7 16 -10 34 -7 39 4 5 8
25 9 44 1 19 8 38 14 42 7 4 8 10 4 13 -5 3 -8 52 -8 109 2 139 1 132 27 160
13 14 22 33 21 42 -1 9 2 16 6 16 5 0 24 21 41 48 18 26 35 49 38 52 11 10 51
69 51 76 0 4 9 15 21 25 11 9 20 20 19 23 0 4 14 37 31 74 18 37 32 75 31 84
0 10 3 20 9 23 5 4 9 17 9 31 0 13 4 24 9 24 5 0 8 81 8 180 0 99 -4 180 -8
180 -6 0 -5 24 2 40 2 5 6 46 8 87 1 16 6 21 16 17 8 -4 15 -13 15 -20 0 -8 9
-24 20 -36 10 -12 17 -25 14 -30 -3 -5 3 -12 15 -15 11 -3 19 -8 16 -12 -2 -4
2 -19 9 -33 8 -15 12 -57 11 -114 -1 -52 4 -103 11 -121 7 -18 11 -33 8 -33
-13 0 53 -99 89 -133 23 -22 41 -43 40 -47 -1 -4 15 -15 35 -23 20 -9 44 -21
52 -27 19 -13 73 -34 83 -32 4 1 7 -2 7 -7 0 -5 18 -8 40 -7 22 1 40 -2 40 -6
0 -5 5 -6 10 -3 6 3 10 2 10 -3 0 -9 40 -6 70 5 8 3 26 6 40 7 14 0 31 5 38 9
6 5 16 6 21 2 6 -3 14 3 20 12 6 10 11 15 11 10 0 -16 61 25 70 48 5 14 16 25
24 25 8 0 17 6 19 13 4 9 6 9 6 -1 1 -7 5 -10 11 -7 5 3 10 0 10 -7 0 -7 9
-19 20 -26 12 -7 18 -17 15 -22 -8 -13 25 -81 36 -74 5 3 9 0 9 -5 0 -15 33
-14 48 1 7 7 12 8 12 3 0 -5 7 1 16 13 8 12 21 22 27 20 37 -6 117 35 117 61
0 7 7 14 15 17 8 4 12 10 9 15 -3 5 12 28 33 50 65 69 71 77 66 83 -3 2 7 17
21 33 14 15 26 34 26 41 0 7 7 20 15 29 8 8 13 19 10 24 -4 5 -1 9 6 9 7 0 10
3 6 6 -3 4 0 18 7 33 7 14 12 36 10 48 -2 12 1 25 6 28 6 3 10 26 10 50 0 24
4 46 9 49 11 7 10 236 -1 236 -4 0 -8 14 -8 30 0 17 -4 30 -8 30 -4 0 -8 9 -9
19 -1 11 -13 38 -27 60 -14 22 -26 44 -26 49 0 19 -143 171 -161 172 -4 0 -24
8 -45 17 -57 24 -63 26 -127 29 -32 1 -64 5 -72 8 -8 3 -15 0 -15 -6 0 -7 -4
-7 -13 1 -8 6 -16 9 -19 6 -2 -3 -31 -7 -64 -10 -118 -10 -203 -25 -210 -36
-3 -5 -21 -9 -40 -9 -19 0 -34 -5 -34 -11 0 -5 -5 -7 -10 -4 -6 4 -16 2 -23
-3 -7 -6 -28 -11 -47 -13 -19 -2 -39 -6 -45 -10 -5 -3 -17 -6 -25 -6 -8 0 -37
-10 -65 -23 -27 -13 -57 -22 -65 -21 -8 2 -12 -1 -7 -5 7 -8 -71 -50 -85 -46
-5 1 -8 -3 -8 -9 0 -6 -7 -9 -17 -7 -9 2 -31 -12 -49 -29 l-32 -33 -105 0
c-64 0 -108 -4 -112 -11 -4 -6 -13 -8 -20 -5 -8 3 -19 -2 -25 -9 -8 -10 -18
-12 -28 -6 -10 6 -21 4 -30 -6 -8 -8 -23 -12 -33 -10 -10 3 -23 -1 -29 -8 -6
-8 -17 -12 -24 -9 -16 6 -87 -32 -99 -52 -4 -8 -15 -14 -22 -14 -14 0 -19 -12
-16 -32 0 -5 -3 -8 -9 -8 -5 0 -10 -7 -10 -15 0 -8 -4 -15 -10 -15 -5 0 -10
-5 -10 -11 0 -6 -8 -21 -18 -34 -12 -15 -17 -38 -16 -71 0 -27 -4 -58 -9 -69
-6 -11 -13 -29 -16 -40 -7 -26 -6 -258 2 -312 3 -24 1 -43 -4 -43 -5 0 -9 -9
-9 -20 0 -24 -17 -62 -55 -125 -73 -119 -116 -205 -109 -217 3 -5 0 -17 -8
-26 -16 -19 -18 -128 -3 -152 10 -16 16 -43 17 -77 0 -13 4 -23 8 -23 7 0 7
-22 0 -40 -1 -3 -2 -8 -1 -12 0 -5 -4 -8 -10 -8 -6 0 -9 -7 -5 -15 3 -8 0 -15
-7 -15 -9 0 -8 -3 1 -9 11 -7 11 -11 -2 -23 -8 -9 -13 -18 -10 -20 2 -3 0 -18
-7 -34 -13 -34 -20 -68 -22 -106 -1 -16 -7 -28 -12 -28 -7 0 -10 -26 -10 -65
1 -36 -2 -65 -6 -65 -3 0 -9 -9 -12 -20 -3 -11 -1 -20 5 -20 5 0 6 -4 3 -10
-3 -5 -2 -10 2 -10 5 0 10 -21 10 -47 1 -27 7 -66 13 -88 7 -22 12 -48 13 -57
1 -10 6 -18 12 -18 5 0 3 -4 -5 -10 -13 -8 -13 -10 1 -15 8 -3 16 -17 17 -32
3 -33 8 -39 25 -25 8 7 17 9 21 5 4 -4 10 -2 15 5 6 9 11 9 24 -1 15 -10 16
-16 5 -44 -7 -18 -16 -33 -21 -33 -4 0 -5 -4 -2 -10 3 -5 2 -10 -4 -10 -5 0
-12 -8 -16 -19 -6 -21 -44 -68 -46 -58 -1 4 -2 17 -2 30 -1 12 -5 25 -11 29
-6 4 -9 27 -7 51 1 25 -2 48 -8 52 -6 3 -11 19 -11 34 0 15 -3 31 -7 35 -4 3
-8 27 -9 52 -1 26 -6 49 -11 53 -10 7 -9 43 2 61 5 8 4 11 -2 7 -12 -7 -27 38
-18 53 3 4 0 10 -6 12 -6 2 -12 25 -13 51 0 26 -6 49 -13 51 -7 3 -10 17 -7
35 3 16 0 32 -6 36 -5 3 -10 24 -10 45 0 21 -5 42 -11 45 -5 4 -8 12 -6 18 2
7 -2 24 -9 38 -7 15 -10 29 -7 32 3 4 0 13 -7 22 -7 8 -10 21 -7 29 3 8 3 17
-1 21 -11 10 -10 79 1 86 5 4 5 14 -1 26 -8 15 -8 25 2 39 17 24 15 176 -2
197 -7 7 -9 17 -5 20 3 4 1 7 -6 7 -8 0 -11 7 -7 15 3 8 -2 21 -10 29 -8 9
-15 19 -14 23 0 4 -6 15 -13 23 -7 8 -21 33 -31 55 -10 22 -31 56 -46 75 -15
19 -25 40 -23 47 2 6 -1 14 -6 18 -13 8 -15 181 -2 189 11 7 10 126 -1 126 -4
0 -8 29 -8 65 0 36 -3 65 -8 65 -4 0 -8 14 -8 31 -1 17 -6 34 -11 38 -6 3 -9
14 -7 24 1 10 -3 20 -11 23 -7 3 -11 14 -8 25 3 11 0 19 -6 19 -7 0 -10 4 -7
9 3 4 -3 16 -14 26 -11 10 -20 22 -20 27 0 19 -109 101 -128 96 -15 -4 -128
25 -145 37 -10 7 -26 11 -37 8 -10 -3 -21 0 -24 6 -5 7 -48 11 -115 11 l-107
0 -34 35 c-18 18 -36 34 -39 33 -3 -1 -17 3 -31 9 -14 6 -29 11 -34 11 -5 0
-12 5 -15 10 -8 12 -74 47 -83 44 -5 -1 -8 3 -8 9 0 6 -9 9 -19 6 -11 -3 -22
1 -25 9 -3 7 -14 11 -25 9 -11 -2 -23 0 -26 6 -4 5 -19 9 -35 9 -16 0 -31 4
-34 8 -3 5 -18 8 -33 7 -15 -1 -31 3 -34 7 -3 5 -20 10 -37 10 -18 1 -32 4
-32 8 0 4 -14 7 -32 8 -17 0 -34 4 -37 9 -3 5 -22 8 -41 7 -19 -1 -39 2 -45 6
-5 4 -23 7 -40 6 -16 -1 -36 3 -42 8 -8 5 -13 5 -13 -1 0 -5 -9 -9 -20 -9 -11
0 -20 4 -20 7 0 4 -13 4 -29 -1 -19 -5 -33 -4 -40 3 -8 8 -11 8 -11 0z m157
-170 c7 -6 34 -10 63 -8 27 2 50 -1 50 -6 0 -5 29 -9 64 -9 36 0 68 -4 71 -10
3 -5 16 -8 28 -6 12 2 47 -5 77 -16 30 -10 60 -16 66 -14 7 3 15 -1 18 -9 3
-9 14 -12 30 -9 15 2 26 0 26 -6 0 -5 14 -10 30 -10 17 0 30 -4 30 -9 0 -7 39
-22 55 -21 3 0 18 -6 35 -15 16 -8 37 -16 47 -18 10 -2 32 -12 50 -23 27 -16
32 -24 29 -51 -1 -18 -5 -36 -9 -39 -4 -4 -7 -18 -7 -30 0 -13 -5 -26 -11 -29
-6 -4 -8 -13 -5 -20 3 -8 1 -15 -4 -17 -5 -2 -31 -23 -58 -47 -47 -43 -52 -45
-113 -46 -35 -1 -67 3 -70 8 -9 13 -89 10 -114 -4 -5 -4 -19 -5 -30 -3 -10 1
-24 -1 -30 -5 -5 -5 -23 -11 -40 -13 -42 -7 -59 -12 -65 -19 -6 -8 -79 -39
-84 -36 -2 1 -15 -10 -29 -25 -14 -15 -28 -24 -31 -21 -3 4 -6 1 -6 -6 0 -6
-12 -22 -27 -35 -25 -22 -29 -23 -51 -8 -19 13 -27 13 -47 2 -14 -7 -28 -10
-32 -7 -3 4 -12 2 -20 -4 -7 -7 -13 -7 -13 -2 0 6 -11 8 -24 6 -32 -6 -119 40
-146 77 -12 16 -18 30 -13 30 4 0 3 4 -3 8 -15 11 -47 83 -51 117 -1 16 -6 37
-10 45 -9 23 -9 42 1 70 5 14 8 37 7 53 -1 15 3 27 9 27 5 0 10 11 10 24 0 14
7 31 15 40 8 8 15 18 15 22 0 4 12 25 27 47 23 33 61 62 90 69 5 1 22 7 38 13
41 14 147 13 162 -2z m3521 -3 c1 -1 10 -3 20 -5 40 -4 72 -18 72 -31 0 -8 5
-14 10 -14 15 0 71 -56 74 -73 1 -8 7 -22 14 -30 7 -8 12 -19 11 -23 -2 -15
13 -54 21 -54 11 0 6 -170 -5 -178 -5 -4 -10 -18 -10 -32 0 -14 -7 -34 -17
-45 -10 -10 -17 -24 -15 -29 4 -12 -58 -76 -73 -76 -6 0 -9 -4 -5 -9 9 -16
-23 -31 -76 -35 -14 -2 -31 -6 -37 -10 -6 -3 -13 -2 -16 3 -3 5 -15 7 -27 4
-12 -4 -25 0 -29 8 -7 11 -13 11 -34 0 -27 -15 -56 -9 -56 11 -1 27 -196 138
-244 138 -12 0 -26 3 -30 7 -4 4 -19 8 -34 9 -15 1 -27 2 -27 3 0 11 -95 16
-125 6 -12 -4 -32 -8 -43 -9 -12 -2 -31 -6 -43 -10 -15 -4 -29 1 -48 19 -15
14 -31 25 -37 25 -5 0 -12 7 -15 15 -4 8 -12 15 -20 15 -8 0 -13 3 -12 8 1 4
-3 16 -9 27 -6 11 -12 22 -12 25 -11 40 -14 50 -21 50 -3 0 -7 17 -8 38 -1 32
3 42 29 61 16 12 38 24 48 26 10 2 42 13 71 26 29 12 58 22 66 22 8 0 14 4 14
8 0 4 15 9 33 12 44 7 60 11 73 19 12 8 58 19 91 22 12 1 28 7 35 13 7 6 22 9
33 7 10 -1 24 1 30 5 5 4 34 9 64 10 30 1 59 5 65 8 5 4 45 7 88 8 43 1 80 4
83 7 5 5 78 3 83 -2z m-1945 -2389 c25 -14 26 -16 12 -35 -9 -12 -20 -33 -26
-48 -7 -18 -18 -28 -31 -28 -14 0 -18 5 -14 15 3 8 0 20 -7 27 -19 20 -14 66
8 82 11 8 22 11 25 8 3 -4 17 -13 33 -21z m385 -53 c7 -7 12 -25 12 -41 0 -15
4 -26 8 -23 11 6 9 -225 -1 -242 -11 -16 -47 -16 -47 1 0 6 -16 27 -35 45 -20
17 -32 32 -28 32 4 0 4 4 -2 8 -12 8 -40 58 -54 95 -8 21 -7 25 4 20 9 -3 15
1 15 8 0 15 93 109 107 109 5 0 14 -5 21 -12z m-495 -122 c4 4 7 5 7 1 0 -3
-15 -22 -34 -42 -27 -28 -39 -35 -52 -27 -11 6 -13 11 -5 16 6 4 11 15 11 25
0 9 10 28 22 40 l21 23 12 -21 c6 -12 14 -18 18 -15z"/>
<path d="M3738 1724 c-11 -6 -37 -10 -59 -8 -21 1 -39 -2 -39 -7 0 -5 -11 -9
-25 -9 -14 0 -25 -5 -25 -10 0 -5 -3 -9 -7 -8 -24 6 -113 -51 -113 -72 0 -3
23 -16 50 -29 28 -13 50 -27 50 -30 0 -3 20 -15 45 -26 25 -11 45 -23 45 -28
0 -5 8 -6 17 -3 10 4 14 4 10 0 -18 -19 231 -144 288 -144 14 0 16 -3 8 -8
-15 -10 -130 -9 -139 1 -4 4 -20 7 -35 7 -15 0 -31 5 -34 10 -3 6 -14 10 -23
10 -15 0 -81 31 -169 79 -14 7 -30 14 -37 15 -6 1 -20 7 -32 14 -11 6 -32 13
-45 16 -13 2 -31 7 -40 11 -20 7 -36 -25 -18 -36 7 -4 9 -16 6 -28 -3 -12 -2
-21 2 -21 4 0 19 -21 32 -47 32 -64 34 -66 115 -148 64 -64 112 -97 154 -107
8 -2 21 -9 28 -16 8 -7 18 -10 23 -7 5 4 9 2 9 -4 0 -5 15 -8 33 -7 17 2 35
-2 39 -7 7 -12 327 -16 343 -5 6 4 28 8 48 10 20 1 37 6 37 11 0 4 4 6 8 3 5
-3 19 1 33 8 13 7 30 11 37 8 6 -2 12 1 12 6 0 8 45 24 75 26 6 0 24 8 40 17
29 15 43 53 23 65 -4 3 -6 10 -3 15 4 5 2 9 -3 9 -6 0 -8 9 -5 20 3 11 0 20
-6 20 -6 0 -10 3 -9 8 2 12 -14 45 -39 78 -13 17 -23 34 -23 37 0 15 -156 177
-171 177 -5 0 -18 8 -29 18 -11 9 -23 15 -27 14 -3 -2 -9 0 -12 5 -12 16 -60
43 -79 43 -10 0 -23 5 -30 12 -7 7 -12 8 -12 3 0 -6 -4 -5 -8 2 -8 13 -57 25
-112 27 -19 1 -41 5 -48 10 -20 12 -131 12 -154 0z"/>
<path d="M755 1580 c-4 -6 -19 -9 -33 -7 -15 3 -34 1 -43 -4 -8 -4 -26 -9 -40
-11 -13 -2 -30 -7 -36 -11 -7 -5 -17 -5 -23 -2 -5 3 -10 1 -10 -4 0 -6 -7 -11
-15 -11 -8 0 -15 -5 -15 -11 0 -5 -4 -8 -9 -5 -5 3 -14 -1 -21 -9 -7 -8 -16
-13 -20 -10 -5 3 -16 -2 -24 -11 -9 -8 -16 -12 -16 -8 0 4 -8 0 -17 -8 -10 -9
-23 -17 -30 -19 -12 -4 -155 -134 -269 -245 -34 -34 -66 -59 -69 -55 -4 3 -5
-3 -3 -14 2 -13 12 -20 26 -21 12 -1 31 -9 42 -19 10 -9 23 -14 29 -11 5 4 12
2 16 -4 3 -5 17 -10 31 -10 13 0 24 -5 24 -11 0 -6 9 -9 20 -6 10 3 20 1 22
-4 2 -5 13 -11 26 -14 12 -2 28 -7 35 -12 13 -8 23 -11 52 -15 11 -2 23 -7 26
-12 4 -5 18 -8 33 -8 14 0 26 -4 26 -9 0 -5 11 -9 24 -9 14 0 27 -4 30 -9 4
-5 14 -8 24 -6 9 1 27 -3 38 -10 12 -8 25 -10 30 -5 5 5 25 3 45 -4 20 -7 59
-12 87 -12 29 1 52 -1 52 -4 0 -3 15 -7 33 -9 45 -4 48 -4 82 7 17 5 45 8 62
6 18 -1 35 2 38 7 4 5 17 9 30 9 13 0 27 5 30 10 4 6 10 8 15 5 5 -3 15 1 23
10 8 8 21 16 28 17 7 2 20 10 30 18 9 8 32 26 50 39 38 27 67 67 116 159 52
100 45 110 -54 66 -32 -14 -66 -23 -75 -21 -9 3 -18 1 -20 -5 -2 -5 -10 -10
-18 -12 -8 -2 -23 -6 -33 -11 -9 -4 -28 -5 -40 -3 -13 3 -28 -1 -34 -7 -11
-12 -195 -12 -268 -1 -16 2 -36 5 -43 5 -7 1 -10 5 -7 11 3 5 29 8 58 6 29 -2
58 1 64 6 7 6 40 10 73 9 33 0 60 3 60 8 0 4 12 7 28 6 15 0 38 4 51 11 13 7
30 10 37 7 8 -3 14 -1 14 5 0 5 13 12 29 15 32 7 129 65 150 91 11 13 6 22
-32 58 -54 52 -110 87 -149 95 -15 3 -28 10 -28 15 0 5 -8 8 -17 7 -10 -2 -27
2 -38 7 -11 6 -33 10 -48 9 -15 -1 -30 2 -33 7 -8 12 -202 10 -209 -2z"/>
</g>
</svg>
